<?xml version="1.0" encoding="UTF-8"?><svg id="Capa_1" xmlns="http://www.w3.org/2000/svg" viewBox="0 0 427.12 487.06"><defs><style>.cls-1{fill:#ecb616;fill-rule:evenodd;}</style></defs><path class="cls-1" d="M421.68,56.07c17.48-13.04-17.62-70.01-43.32-52.88-5.77,3.85-5.67,8.66-5.67,17.27,0,15.71-.43,30.72.08,46.54.96,29.98,2.72,59.72,4.5,89.5.9,14.9,1.84,29.37,2.78,44.13.74,11.71,3.22,33.04,2.04,43.91-11.58-14.31-48.47-190.98-87.15-221.28-4.86-3.8-13.39-6.74-19.65-5.1-15.31,4.03-21.94,14.1-26.29,29.89-11.55,41.93-2.44,112.61,4.78,153.68,5.63,32.1,10.23,64.07,15.65,96.32,3.1,18.5,11.89,83.09,17.31,94.91,7.2,15.72,10.42,5.85,12.13,16.47l2.84,52.47c.26,10.57-3.07,16.4,1.84,25.14,8.16-2.03,6.68-8.22,5.86-16.53-1.81-18.41-1.67-46.12-.22-64.08,1.62-1.14,4.11-1.94,6.29-2.69,1.17,6.3-.2,8.65,6.84,8.7,1.25-2.71,5.5-29.95,5.85-34.44.49-6.26,2.17-13.23,1.81-18.56-.35-5.08-1.65-11.75-2.23-16.98-2.54-23.06-7.71-45.09-10.91-67.78l-13.6-104.65c-1.25-8.67-4.61-26.74-4.23-34.97,9.42,12.87,33.02,84.38,38.46,104.58,4.57,16.92,24.95,59.42,38.35,69.06,6.88,4.95,17.72,9.24,26.27,3.39,11.27-7.69,19.48-31.64,22.21-49.55,6.5-42.62.74-165.39-6.58-203.93l3.97-2.58ZM383.67,179.44c-1.53-18.41-1.91-37.26-2.81-55.96-.71-14.76-3.4-42.73-1.67-56.17,4.13,12.97,9.04,102.62,4.48,112.13ZM420.84,163.15c2.24,6.05,3.55,37.75,3.55,47.03l.57,7.22-5.05,49.35,1.27-38.67-.12-34.6-.21-30.33Z"/><path class="cls-1" d="M193.61,339.87c4.67-2.75,9.45-5.31,13.23-7.52,16.15-9.46,39.4-39.94,45.61-67.24,4.72-20.77,4.03-63.07-6.88-76.64-2.62-3.25-2.78-2.8-5.3-6.73-38.4-47.39-27.87-53.16-105.23-85.63-22.57-9.48-7.53-3.32-16.39-14.7-14.16-18.21-43.38-24.17-61.94-12.1C11.76,98.55,6.58,160.16,1.07,210.4c-2.41,22.01-.57,47.9,3.92,69.41,2.75,13.15,3.98,16.97,9.09,29.1,5.31,12.6,15.63,31.08,25.69,38.78,34.26,26.22,63.48,30.33,105.36,17.6,27.9-8.48,15.24-6.86,48.5-25.42M73.32,124.94c23.13,2.44,36.99,3.74,53.37,15.26,18.33,12.91,23.56,13.46,39.87,29.36,20.38,19.9,48.74,65.85,30.99,94.34-11.72,18.8-16.86,23.33-34.53,33.44-15.49,8.88-24.21,20.2-46.62,22.76-21.1,2.4-32.38-9.99-43.96-25.41-16.8-22.37-16.28-40.79-16.28-69.01,0-19.59,3.14-44.85,6.8-63.95,2.46-12.82,7.32-25.17,10.36-36.79Z"/></svg>