<?xml version="1.0" encoding="UTF-8"?><svg id="Capa_1" xmlns="http://www.w3.org/2000/svg" viewBox="0 0 796 405.1"><defs><style>.cls-1{fill:#edb717;}.cls-1,.cls-2{fill-rule:evenodd;}.cls-2{fill:#ecb616;}</style></defs><path class="cls-1" d="M345.69,299.03l23.11-4.55c.85-6.77-.28-31.72-4.19-38.11-7.66,11.34-14.46,28.25-18.92,42.65M414.58,301.77l-25.35-7.41c-6.3-18.67-3.11-47.52-9.67-67.94-14.29-2.51-16.22,3.75-22.78,9.66-10.62,3.94-20.86-14.9-37.5,47.94-5.96,22.5-10.08,49.04-15.35,71.89-1.96,8.51-7.92,35.25,8.86,29.11,7.82-2.86,9.2-21.86,12.1-31.11,6.74-21.53,6.63-35.38,36.93-39.33l8.97,1c5.88,15.75-1.38,51.73,5.52,66.55,22.05,11.38,12.2-52.94,14.37-67.77,12.36,1.62,12.72,4.13,24.65.83,1.97,28.35-3.54,69.44,9.6,89.8,10.79.6,14.76-.91,16.96-10.58,3.24-14.31-1.66-13.06-4.87-20-2.33-5.05-4.68-101.71-3.51-105.11,3.19-9.26,25.45-18.5,40.47-16.22.23,29.78-43.96,50.85-33.39,78.08,7.2,18.57,91.97,17.06,85.32-7.05-5.79-2.36-52.43-1.18-66.19-2.35-.34-9.06,29.34-39.66,33.07-63.87,2.74-17.74-4.8-25.16-22.63-25.37-18.68-.22-28.81,11.33-39.1,12.59-2.42-9.78.75-23.82-6.58-26.86-15.72-6.51-14.13,9.17-13.69,19.18.43,9.76-.85,25.02.41,32.91,1.77,11.12,2.86,18.91,3.38,31.44Z"/><path class="cls-1" d="M620.74,337.29c1.81-3.59.66-1.77,1.56-4.24.16-.44,1.4-3.09.65-3.29-1.68-.45-2.15-.29-2.78,1.25-.39.94-2.06,5.13-1.35,5.96.95,1.11,1.28,1.61,1.93.32M678.72,238.5c-25.23,10.97-99.28,35.15-85.63,65.39,9.63,21.35,1.92,40.41,17.68,58.47,14.03,16.07,46.8,17.59,49.75-5.95-7.9-12.76-14.87-9.13-27.53-15.59,1.06-7.7,8.3-9.72,15.29-13.3,10.83-5.55,12.73-5.03,11.83-18.73l-40.5-9.19c-1.77-16.04,10.49-19.31,22.25-25.39,9.3-4.81,24.7-12.5,35.49-15.71.22.48.36.72.43,1.51.07.79.33,1.16.42,1.53l2.99,13.24c3.01,15.55,3.78,75.76,4.77,95.51.32,6.35.33,12.74,1.2,19.07.25,1.89.96,6.01,1.76,7.86,7.32,16.91,26.93,3.66,21.69-15.04-1.76-6.27-4.28-5.16-5.85-14.07-1-5.67-1.05-13.27-1.12-19.42-1.02-84.51-13.26-77.63,16.05-92.33,6.38-3.2,15.46-5.88,21.52-2.82,15.9,13.66-91.19,95.28,14.37,89.12,10.68-.62,26.51-1.79,35.47-7.57.04-.03,4.04-3.65,4.08-3.75.17-.31.39-.89.51-1.21.11-.33.17-1,.24-1.3,2.56-11.61-36.59-2.93-67.76-7.09,2.03-8.89,12.2-21.15,17.28-28.13,43.23-59.43-5.2-74.54-38.53-50.74l-13.18-24.07c-14.94-9.54-13.94,11.3-14.97,19.71Z"/><path class="cls-1" d="M158.08,357.4c-19.61-14.45-5.48-103.05-22.73-128.64-30.59,4.97-28.35,126.11-26.81,151.13.6,9.71-.92,17.7,7.82,20.23,5.67-10.82-1.32-52.19,4.05-86.74,7.94-51.05-6.49-40.28,6.64-65.21l4.94-6.8c5.2,10.08,6.52,52.93,7.87,68.29,1.66,19.04.55,56.17,21.31,55.9,9.02-13.89,15.34-42.58,19.6-61.43l9.46-53.1c1.47-10.18-.2-8.35,9.22-10.89-5.92-8.93.55-10.57-6.86-17.26-8.93,3.7-7.41,23.6-8.96,33.06-3.3,20.17-18.17,90.36-25.55,101.46M157.4,343.43c-11.45-17.98-2.8-112.73-20.28-119.38-13.85-5.28-19.24,10.79-23.18,22.92-11.16,34.39-8.62,48.32-9.33,84.11-.3,15.24-2.39,29.19-1.77,44.81.79,19.86,2.26,30.55,16.67,28.46,9.01-12.28,2.73-43.87,3.27-61.66.44-14.96,3.91-47.94,7.26-62.35,3.05,2.37.53-1.79,2.57,3.14,3.8,9.15-2.08,96.9,28.7,86.72,12.6-6.82,20.08-42.55,23.71-58.62,3.68-16.31,9.58-58.86,14.56-63.21l2.83-2.05c.39-.29,1.1-.65,1.58-1.06-4.18-17.43,2.77-29.4-18.26-27.85-9.28,20.99-18.08,114.02-28.33,126.02Z"/><path class="cls-1" d="M555.21,257.26c1.81-3.59.65-1.77,1.56-4.23.16-.44,1.4-3.1.64-3.3-1.67-.45-2.14-.29-2.78,1.25-.39.94-2.06,5.13-1.36,5.96.95,1.12,1.28,1.62,1.93.33M552.25,348.27c7.32-5.34,13.82-14.16,17.88-25.02-3.86-4.24-9.79-8.41-16.73-8.69-.62,9.69-4.31,26.87-1.15,33.71ZM538.04,233.58c-13.19,23.87-33.96,34.84-12.21,69.3,10.23,16.2,8.52,16.37,5.96,37.37-.55,4.55-5.32,35.95-3.74,40.5l1.62,2.56c12.42,9.67,43.9-30.27,49.18-37.35,27.88-37.37-4.83-35.13-18.89-53.91,4.86-12.69,19.93-32.19,21.47-43.28,3.96-28.47-25.69-19.03-43.39-15.19Z"/><path class="cls-1" d="M272.99,257.26c1.81-3.59.65-1.77,1.56-4.23.16-.44,1.4-3.1.65-3.3-1.68-.45-2.14-.29-2.78,1.25-.4.94-2.06,5.13-1.36,5.96.95,1.12,1.28,1.62,1.93.33M267.5,349.87l.72-4.72.58-5.01v-6.02l.14-6.45.86-8.74.14-1.57,12.64,5.73,2.15,2.01.14,3.3-2.73,3.58-14.65,17.9ZM277.1,294c-1.06-21.54,28.85-31.19,15.97-63.07-9.67-2.19-12.41-2.27-22.92-.05-11.84,2.49-13.17-1.34-19.49,8.05-6.87,10.23-17.44,20.49-18.55,35.68-1.39,19.1,8.26,23.14,15.02,37.01,6.2,12.73-6.31,65.47-4.84,69.54,7.37,20.29,66.41-40.83,62.75-61.25-2.24-12.56-18.6-16.32-27.95-25.9Z"/><path class="cls-1" d="M32.36,278.41c-15.45,26.19-25.87,109.43,27.42,77.98,45.44-26.82-1.07-83.75-27.42-77.98M29.34,271.67c-8.72,15.75-16.38,48.03-14.99,69.17,3.77,57.53,93.74,15.85,65.09-37.22-5.23-9.68-21.78-25.63-33.26-29.85-6.16-2.26-10.24-3.12-16.83-2.09Z"/><path class="cls-1" d="M33.98,260.9c1.56,1.37,1.03,1.28,3.78,2.52l15.9,5.59c5.77,2.72,12.5,7.17,16.67,10.52,37.69,30.23,32.69,86.96-24.07,96.43-71.13,11.88-32.67-110.39-15.64-120.52,9.17-5.46,16.95,1.03,21.83,4.05-1.63-8.69-6.85-12.31-19.34-9.62-17.69,3.82-27.32,44.59-30.38,59.74-23.3,115.57,110.37,72.73,95.47,6.49-3.78-16.82-11.11-25.77-21.86-36.79-4.06-4.16-2.27-3.08-7.22-6.5-10.83-7.51-20.82-14.14-35.14-11.91"/><path class="cls-1" d="M203.59,376.85c9.68,2.04,12.83-1.74,18.75-5.96,4.42-40.72-37.58-14.67-18.75,5.96"/><path class="cls-2" d="M487.49,24.11c7.51-5.61-7.58-30.11-18.63-22.74-2.48,1.65-2.44,3.72-2.44,7.43,0,6.75-.18,13.21.04,20.01.41,12.89,1.17,25.68,1.93,38.48.39,6.41.79,12.63,1.19,18.98.32,5.03,1.39,14.21.88,18.88-4.98-6.15-20.84-82.12-37.48-95.15-2.09-1.63-5.76-2.9-8.45-2.19-6.58,1.73-9.44,6.06-11.3,12.85-4.97,18.03-1.05,48.42,2.06,66.09,2.42,13.8,4.4,27.55,6.73,41.42,1.33,7.95,5.11,35.73,7.44,40.81,3.1,6.76,4.48,2.52,5.22,7.08l1.22,22.56c.11,4.55-1.32,7.05.79,10.81,3.51-.87,2.87-3.53,2.52-7.11-.78-7.92-.72-19.83-.09-27.55.7-.49,1.77-.83,2.7-1.16.5,2.71-.09,3.72,2.94,3.74.54-1.16,2.37-12.88,2.51-14.81.21-2.69.93-5.69.78-7.98-.15-2.18-.71-5.05-.96-7.3-1.09-9.92-3.31-19.39-4.69-29.14l-5.85-45c-.54-3.73-1.98-11.5-1.82-15.04,4.05,5.53,14.2,36.28,16.54,44.97,1.96,7.28,10.73,25.55,16.49,29.7,2.96,2.13,7.62,3.97,11.3,1.46,4.85-3.31,8.38-13.6,9.55-21.31,2.79-18.33.32-71.12-2.83-87.69l1.71-1.11ZM471.15,77.16c-.66-7.92-.82-16.02-1.21-24.06-.31-6.35-1.46-18.37-.72-24.15,1.77,5.58,3.89,44.13,1.93,48.22ZM487.13,70.16c.96,2.6,1.53,16.23,1.53,20.22l.25,3.1-2.17,21.22.54-16.63-.05-14.88-.09-13.04Z"/><path class="cls-2" d="M389.42,146.15c2.01-1.18,4.07-2.28,5.69-3.23,6.94-4.07,16.94-17.17,19.61-28.91,2.03-8.93,1.73-27.12-2.96-32.96-1.13-1.4-1.19-1.2-2.28-2.89-16.51-20.38-11.98-22.86-45.25-36.82-9.71-4.07-3.24-1.43-7.05-6.32-6.09-7.83-18.66-10.39-26.64-5.2-19.33,12.57-21.56,39.07-23.93,60.67-1.04,9.46-.24,20.6,1.68,29.85,1.18,5.65,1.71,7.3,3.91,12.51,2.28,5.42,6.72,13.36,11.05,16.68,14.73,11.28,27.3,13.04,45.3,7.57,12-3.65,6.55-2.95,20.85-10.93M337.7,53.73c9.94,1.05,15.91,1.61,22.95,6.56,7.88,5.55,10.13,5.79,17.14,12.63,8.77,8.56,20.96,28.32,13.33,40.57-5.04,8.09-7.25,10.03-14.85,14.38-6.66,3.82-10.41,8.69-20.05,9.79-9.07,1.03-13.93-4.29-18.9-10.93-7.22-9.62-7-17.54-7-29.68,0-8.42,1.35-19.28,2.93-27.5,1.06-5.51,3.15-10.82,4.45-15.82Z"/></svg>