<?xml version="1.0" encoding="UTF-8"?><svg id="Capa_1" xmlns="http://www.w3.org/2000/svg" viewBox="0 0 491.94 116.65"><defs><style>.cls-1{fill:#edb717;fill-rule:evenodd;}</style></defs><path class="cls-1" d="M213.64,51.1l14.28-2.81c.52-4.18-.17-19.6-2.59-23.55-4.73,7.01-8.94,17.46-11.69,26.36M256.22,52.79l-15.66-4.58c-3.9-11.54-1.92-29.37-5.97-41.99-8.83-1.55-10.03,2.31-14.08,5.97-6.56,2.43-12.89-9.21-23.18,29.63-3.69,13.9-6.23,30.31-9.48,44.43-1.21,5.26-4.9,21.79,5.48,17.99,4.83-1.77,5.69-13.51,7.48-19.23,4.17-13.31,4.09-21.86,22.82-24.3l5.54.62c3.63,9.73-.85,31.97,3.41,41.13,13.62,7.03,7.54-32.72,8.88-41.88,7.64,1,7.86,2.55,15.23.51,1.22,17.52-2.19,42.91,5.94,55.5,6.67.37,9.12-.56,10.48-6.54,2-8.84-1.03-8.07-3.01-12.36-1.44-3.12-2.89-62.86-2.17-64.96,1.97-5.72,15.73-11.43,25.01-10.03.14,18.4-27.17,31.43-20.64,48.25,4.45,11.48,56.84,10.54,52.73-4.36-3.58-1.46-32.4-.73-40.91-1.45-.21-5.6,18.13-24.51,20.44-39.47,1.69-10.96-2.97-15.55-13.99-15.68-11.55-.13-17.8,7-24.17,7.78-1.49-6.04.47-14.72-4.07-16.6-9.72-4.02-8.73,5.67-8.46,11.85.26,6.03-.52,15.46.25,20.34,1.1,6.87,1.76,11.69,2.09,19.43Z"/><path class="cls-1" d="M383.63,74.75c1.12-2.22.41-1.1.96-2.62.1-.27.86-1.91.4-2.03-1.04-.28-1.33-.18-1.72.77-.24.58-1.28,3.17-.84,3.68.59.69.79,1,1.19.2M419.46,13.69c-15.59,6.78-61.36,21.72-52.92,40.41,5.95,13.2,1.19,24.97,10.93,36.14,8.67,9.93,28.92,10.87,30.75-3.68-4.88-7.88-9.19-5.64-17.01-9.64.65-4.76,5.13-6.01,9.45-8.22,6.69-3.43,7.87-3.11,7.31-11.58l-25.03-5.68c-1.1-9.91,6.48-11.94,13.75-15.69,5.75-2.97,15.27-7.72,21.93-9.71.13.29.22.45.26.93.04.49.2.72.26.94l1.85,8.18c1.86,9.61,2.34,46.82,2.95,59.03.2,3.92.2,7.87.74,11.79.16,1.17.59,3.71,1.09,4.86,4.53,10.45,16.64,2.26,13.4-9.29-1.09-3.88-2.65-3.19-3.61-8.7-.62-3.5-.65-8.2-.69-12-.63-52.23-8.19-47.98,9.92-57.06,3.94-1.98,9.56-3.64,13.3-1.74,9.83,8.44-56.36,58.88,8.88,55.08,6.6-.38,16.38-1.11,21.92-4.68.02-.02,2.5-2.26,2.52-2.31.11-.19.24-.55.31-.75.07-.2.1-.62.15-.8,1.58-7.17-22.61-1.81-41.88-4.38,1.26-5.5,7.54-13.07,10.68-17.39,26.72-36.73-3.21-46.06-23.81-31.36l-8.14-14.88c-9.23-5.89-8.61,6.98-9.25,12.18Z"/><path class="cls-1" d="M97.7,87.17c-12.12-8.93-3.38-63.69-14.05-79.5-18.9,3.07-17.52,77.94-16.57,93.4.37,6-.57,10.94,4.83,12.5,3.5-6.69-.82-32.25,2.51-53.61,4.91-31.55-4.01-24.9,4.1-40.3l3.05-4.2c3.21,6.23,4.03,32.71,4.86,42.21,1.02,11.77.34,34.72,13.17,34.55,5.58-8.58,9.48-26.31,12.11-37.97l5.84-32.82c.91-6.29-.12-5.16,5.7-6.73-3.66-5.52.34-6.53-4.24-10.67-5.52,2.28-4.58,14.58-5.54,20.43-2.04,12.46-11.23,55.84-15.79,62.71M97.28,78.54c-7.08-11.11-1.73-69.67-12.53-73.78-8.56-3.26-11.89,6.67-14.33,14.16-6.9,21.26-5.33,29.86-5.77,51.98-.18,9.42-1.48,18.04-1.09,27.7.49,12.27,1.39,18.88,10.31,17.59,5.57-7.59,1.69-27.11,2.02-38.11.27-9.24,2.41-29.63,4.48-38.53,1.89,1.47.33-1.11,1.59,1.94,2.35,5.66-1.28,59.89,17.74,53.59,7.79-4.21,12.41-26.29,14.65-36.23,2.27-10.08,5.92-36.38,9-39.07l1.75-1.27c.24-.18.68-.4.98-.66-2.58-10.77,1.71-18.17-11.28-17.21-5.73,12.97-11.17,70.47-17.51,77.88Z"/><path class="cls-1" d="M343.13,25.29c1.12-2.22.4-1.1.96-2.62.1-.27.86-1.91.4-2.04-1.03-.28-1.33-.18-1.72.77-.24.58-1.28,3.17-.84,3.68.59.69.79,1,1.19.2M341.3,81.54c4.53-3.3,8.54-8.75,11.05-15.46-2.38-2.62-6.05-5.2-10.34-5.37-.39,5.99-2.67,16.61-.71,20.83ZM332.52,10.65c-8.15,14.75-20.99,21.53-7.55,42.83,6.32,10.01,5.26,10.12,3.69,23.1-.34,2.81-3.29,22.22-2.31,25.03l1,1.58c7.67,5.98,27.13-18.71,30.39-23.08,17.23-23.09-2.98-21.71-11.67-33.32,3-7.84,12.32-19.9,13.27-26.75,2.45-17.59-15.88-11.76-26.81-9.39Z"/><path class="cls-1" d="M168.71,25.29c1.12-2.22.4-1.1.96-2.62.1-.27.86-1.91.4-2.04-1.04-.28-1.33-.18-1.72.77-.25.58-1.28,3.17-.84,3.68.59.69.79,1,1.19.2M165.32,82.52l.44-2.92.36-3.1v-3.72l.09-3.99.53-5.4.09-.97,7.81,3.54,1.33,1.24.09,2.04-1.69,2.21-9.05,11.06ZM171.25,48c-.65-13.31,17.83-19.28,9.87-38.98-5.98-1.35-7.67-1.4-14.17-.03-7.32,1.54-8.14-.83-12.05,4.97-4.25,6.32-10.78,12.66-11.46,22.05-.86,11.8,5.11,14.3,9.28,22.87,3.83,7.87-3.9,40.46-2.99,42.98,4.55,12.54,41.04-25.23,38.78-37.86-1.38-7.76-11.5-10.09-17.27-16.01Z"/><path class="cls-1" d="M20,38.36c-9.55,16.18-15.99,67.63,16.94,48.19,28.08-16.57-.66-51.76-16.94-48.19M18.13,34.19c-5.39,9.73-10.12,29.68-9.26,42.75,2.33,35.56,57.94,9.79,40.23-23-3.23-5.98-13.46-15.84-20.56-18.45-3.8-1.4-6.33-1.93-10.4-1.29Z"/><path class="cls-1" d="M21,27.53c.97.85.64.79,2.34,1.56l9.83,3.45c3.57,1.68,7.72,4.43,10.3,6.5,23.29,18.69,20.2,53.74-14.87,59.6C-15.37,105.98,8.4,30.42,18.93,24.16c5.67-3.37,10.48.64,13.49,2.5-1.01-5.37-4.23-7.61-11.95-5.94C9.53,23.08,3.58,48.27,1.69,57.64c-14.4,71.43,68.21,44.95,59,4.01-2.34-10.4-6.86-15.93-13.51-22.74-2.51-2.57-1.4-1.9-4.46-4.02-6.7-4.64-12.87-8.74-21.72-7.36"/><path class="cls-1" d="M125.82,99.2c5.98,1.26,7.93-1.08,11.59-3.68,2.73-25.17-23.23-9.07-11.59,3.68"/></svg>